<svg width="58" height="59" viewBox="0 0 58 59" fill="none" xmlns="http://www.w3.org/2000/svg">
<rect x="0.5" y="1.41992" width="57" height="57" rx="28.5" stroke="#080D33"/>
<path d="M28.802 25.4077C26.3048 25.4077 24.2906 27.4224 24.2906 29.9201C24.2906 32.4179 26.3048 34.4325 28.802 34.4325C31.2991 34.4325 33.3134 32.4179 33.3134 29.9201C33.3134 27.4224 31.2991 25.4077 28.802 25.4077ZM28.802 32.8538C27.1882 32.8538 25.869 31.5381 25.869 29.9201C25.869 28.3021 27.1843 26.9865 28.802 26.9865C30.4196 26.9865 31.735 28.3021 31.735 29.9201C31.735 31.5381 30.4157 32.8538 28.802 32.8538ZM34.5502 25.2231C34.5502 25.8083 34.079 26.2756 33.4979 26.2756C32.9129 26.2756 32.4456 25.8044 32.4456 25.2231C32.4456 24.6419 32.9168 24.1706 33.4979 24.1706C34.079 24.1706 34.5502 24.6419 34.5502 25.2231ZM37.5382 26.2913C37.4714 24.8814 37.1494 23.6326 36.1168 22.6036C35.0881 21.5747 33.8395 21.2527 32.4299 21.182C30.9772 21.0995 26.6228 21.0995 25.1701 21.182C23.7644 21.2487 22.5158 21.5708 21.4832 22.5997C20.4506 23.6287 20.1325 24.8775 20.0618 26.2874C19.9794 27.7405 19.9794 32.0958 20.0618 33.5489C20.1286 34.9588 20.4506 36.2077 21.4832 37.2366C22.5158 38.2655 23.7605 38.5876 25.1701 38.6583C26.6228 38.7407 30.9772 38.7407 32.4299 38.6583C33.8395 38.5915 35.0881 38.2695 36.1168 37.2366C37.1455 36.2077 37.4675 34.9588 37.5382 33.5489C37.6206 32.0958 37.6206 27.7444 37.5382 26.2913ZM35.6613 35.108C35.3551 35.8778 34.7622 36.4708 33.9887 36.781C32.8304 37.2405 30.082 37.1345 28.802 37.1345C27.522 37.1345 24.7696 37.2366 23.6152 36.781C22.8456 36.4747 22.2528 35.8817 21.9426 35.108C21.4832 33.9495 21.5892 31.2004 21.5892 29.9201C21.5892 28.6398 21.4871 25.8868 21.9426 24.7322C22.2488 23.9625 22.8417 23.3695 23.6152 23.0592C24.7735 22.5997 27.522 22.7057 28.802 22.7057C30.082 22.7057 32.8344 22.6036 33.9887 23.0592C34.7583 23.3655 35.3512 23.9585 35.6613 24.7322C36.1207 25.8908 36.0147 28.6398 36.0147 29.9201C36.0147 31.2004 36.1207 33.9534 35.6613 35.108Z" fill="white"/>
</svg>
