<svg width="58" height="59" viewBox="0 0 58 59" fill="none" xmlns="http://www.w3.org/2000/svg">
<rect x="0.5" y="1.41992" width="57" height="57" rx="28.5" stroke="#080D33"/>
<path d="M36.8286 20.7197H20.3671C19.6129 20.7197 19 21.3153 19 22.0463V37.7931C19 38.5242 19.6129 39.1197 20.3671 39.1197H36.8286C37.5829 39.1197 38.2 38.5242 38.2 37.7931V22.0463C38.2 21.3153 37.5829 20.7197 36.8286 20.7197ZM24.8029 36.4912H21.9571V27.7101H24.8071V36.4912H24.8029ZM23.38 26.5108C22.4671 26.5108 21.73 25.8003 21.73 24.9295C21.73 24.0588 22.4671 23.3483 23.38 23.3483C24.2886 23.3483 25.03 24.0588 25.03 24.9295C25.03 25.8044 24.2929 26.5108 23.38 26.5108ZM35.47 36.4912H32.6243V32.2197C32.6243 31.2012 32.6029 29.891 31.1457 29.891C29.6629 29.891 29.4357 30.9999 29.4357 32.1458V36.4912H26.59V27.7101H29.32V28.9094H29.3586C29.74 28.2194 30.67 27.4924 32.0543 27.4924C34.9343 27.4924 35.47 29.3119 35.47 31.6776V36.4912Z" fill="white"/>
</svg>
