<svg width="58" height="59" viewBox="0 0 58 59" fill="none" xmlns="http://www.w3.org/2000/svg">
<rect y="0.919922" width="58" height="58" rx="20" fill="#000F93"/>
<path d="M41.4776 23.9365C41.1901 22.8279 40.3429 21.9548 39.2673 21.6585C37.3177 21.1201 29.5 21.1201 29.5 21.1201C29.5 21.1201 21.6823 21.1201 19.7327 21.6585C18.6571 21.9549 17.8099 22.8279 17.5224 23.9365C17 25.9459 17 30.1383 17 30.1383C17 30.1383 17 34.3307 17.5224 36.3401C17.8099 37.4487 18.6571 38.2854 19.7327 38.5817C21.6823 39.1201 29.5 39.1201 29.5 39.1201C29.5 39.1201 37.3177 39.1201 39.2673 38.5817C40.3429 38.2854 41.1901 37.4487 41.4776 36.3401C42 34.3307 42 30.1383 42 30.1383C42 30.1383 42 25.9459 41.4776 23.9365ZM26.9432 33.9447V26.3319L33.4772 30.1384L26.9432 33.9447Z" fill="white"/>
</svg>
